<svg width="60" height="15" viewBox="0 0 60 15" fill="none" xmlns="http://www.w3.org/2000/svg">
<path d="M0.422 13.9219V0.799874H6.038C7.466 0.799874 8.606 1.17787 9.458 1.93387C10.31 2.67787 10.736 3.73387 10.736 5.10187C10.736 5.96587 10.55 6.72787 10.178 7.38787C9.806 8.03587 9.272 8.54587 8.576 8.91787C7.88 9.27787 7.034 9.45787 6.038 9.45787L3.23 9.43987V13.9219H0.422ZM5.57 3.17587H3.23V7.26187L5.57 7.27987C5.99 7.27987 6.374 7.21987 6.722 7.09987C7.07 6.96787 7.352 6.75187 7.568 6.45187C7.784 6.13987 7.892 5.72587 7.892 5.20987C7.892 4.69387 7.784 4.29187 7.568 4.00388C7.352 3.70387 7.07 3.49387 6.722 3.37387C6.374 3.24187 5.99 3.17587 5.57 3.17587ZM11.2005 13.9219V0.799874H13.8465V6.01987H13.9545C14.2185 5.38387 14.6265 4.90387 15.1785 4.57987C15.7305 4.25587 16.3485 4.09387 17.0325 4.09387C17.6805 4.09387 18.2565 4.22587 18.7605 4.48987C19.2765 4.75387 19.6845 5.17987 19.9845 5.76787C20.2845 6.34387 20.4345 7.11787 20.4345 8.08987V13.9219H17.7885V8.66587C17.7885 7.84987 17.6445 7.24387 17.3565 6.84787C17.0685 6.45187 16.6065 6.25387 15.9705 6.25387C15.2865 6.25387 14.7585 6.48787 14.3865 6.95587C14.0265 7.41187 13.8465 7.94587 13.8465 8.55787V13.9219H11.2005ZM21.5287 13.9219V0.799874H24.1747V13.9219H21.5287ZM29.6006 14.0839C28.5926 14.0839 27.7286 13.8799 27.0086 13.4719C26.3006 13.0639 25.7546 12.4939 25.3706 11.7619C24.9866 11.0179 24.7946 10.1539 24.7946 9.16988C24.7946 8.12587 24.9866 7.22587 25.3706 6.46987C25.7666 5.71387 26.3186 5.13187 27.0266 4.72387C27.7346 4.30387 28.5626 4.09387 29.5106 4.09387C30.6266 4.09387 31.5446 4.33987 32.2646 4.83188C32.9846 5.31187 33.5006 5.97787 33.8126 6.82987C34.1246 7.66987 34.2266 8.62387 34.1186 9.69187H27.4046C27.3926 10.4599 27.5906 11.0539 27.9986 11.4739C28.4066 11.8819 28.9406 12.0859 29.6006 12.0859C30.1046 12.0859 30.5306 11.9779 30.8786 11.7619C31.2386 11.5339 31.4666 11.2339 31.5626 10.8619H34.0646C33.9806 11.5099 33.7346 12.0739 33.3266 12.5539C32.9306 13.0339 32.4146 13.4119 31.7786 13.6879C31.1426 13.9519 30.4166 14.0839 29.6006 14.0839ZM29.5106 6.09187C28.9106 6.09187 28.4246 6.26587 28.0526 6.61387C27.6806 6.94987 27.4706 7.41187 27.4226 7.99987H31.5266C31.4906 7.35187 31.2806 6.87187 30.8966 6.55987C30.5246 6.24787 30.0626 6.09187 29.5106 6.09187ZM32.981 13.9219L36.599 8.97187L33.305 4.27387H36.455L38.381 7.17187H38.489L40.397 4.27387H43.403L40.199 8.89987L43.745 13.9219H40.631L38.399 10.6459H38.291L35.951 13.9219H32.981ZM49.4842 14.0839C48.3082 14.0839 47.3002 13.8739 46.4602 13.4539C45.6322 13.0219 44.9962 12.4219 44.5522 11.6539C44.1202 10.8859 43.9042 9.97987 43.9042 8.93587V0.799874H46.6942V8.91787C46.6942 9.80587 46.9402 10.4779 47.4322 10.9339C47.9362 11.3779 48.6262 11.5999 49.5022 11.5999C50.4262 11.5999 51.1222 11.3659 51.5902 10.8979C52.0702 10.4179 52.3102 9.75787 52.3102 8.91787V0.799874H55.1002V8.93587C55.1002 10.0159 54.8722 10.9399 54.4162 11.7079C53.9602 12.4759 53.3122 13.0639 52.4722 13.4719C51.6322 13.8799 50.6362 14.0839 49.4842 14.0839ZM56.7311 13.9219V0.799874H59.5391V13.9219H56.7311Z" fill="white"/>
</svg>
